<svg width="326" height="340" viewBox="0 0 326 340" fill="none" xmlns="http://www.w3.org/2000/svg">
<g clip-path="url(#clip0)">
<g opacity="0.7">
<path opacity="0.7" d="M270.26 162.751L162.72 136.853V339.546L270.26 311.397V162.751Z" fill="url(#paint0_linear)"/>
<g opacity="0.1">
<path opacity="0.1" d="M270.26 162.751L162.72 136.853V339.546L270.26 311.397V162.751Z" fill="url(#paint1_linear)"/>
</g>
<path opacity="0.7" d="M55.1757 162.751L162.72 136.853V339.546L55.1757 311.956V162.751Z" fill="url(#paint2_linear)"/>
<g opacity="0.17">
<path opacity="0.17" d="M55.1757 162.751L162.72 136.853V339.546L55.1757 311.956V162.751Z" fill="url(#paint3_linear)"/>
</g>
<path opacity="0.7" d="M162.72 136.853L218.46 90.6848L326 118.275L270.26 162.751L162.72 136.853Z" fill="url(#paint4_linear)"/>
<path opacity="0.7" d="M0 118.835L55.1757 162.751L162.72 136.853L108.104 90.6848L0 118.835Z" fill="url(#paint5_linear)"/>
<g opacity="0.05">
<path opacity="0.05" d="M0 118.835L55.1757 162.751L162.72 136.853L108.104 90.6848L0 118.835Z" fill="url(#paint6_linear)"/>
</g>
<g opacity="0.5">
<path opacity="0.5" d="M160.779 113.425H84.9554C83.8516 113.425 82.9568 114.32 82.9568 115.424V185.074C82.9568 186.178 83.8516 187.073 84.9554 187.073H160.779C161.883 187.073 162.778 186.178 162.778 185.074V115.424C162.778 114.32 161.883 113.425 160.779 113.425Z" fill="url(#paint7_linear)"/>
</g>
<path opacity="0.7" d="M159.913 113.993H85.9281C84.8243 113.993 83.9295 114.888 83.9295 115.992V183.857C83.9295 184.961 84.8243 185.856 85.9281 185.856H159.913C161.017 185.856 161.912 184.961 161.912 183.857V115.992C161.912 114.888 161.017 113.993 159.913 113.993Z" fill="url(#paint8_linear)"/>
<path opacity="0.7" d="M101.091 125.83H91.9374C90.8335 125.83 89.9387 126.725 89.9387 127.828V135.668C89.9387 136.771 90.8335 137.666 91.9374 137.666H101.091C102.195 137.666 103.09 136.771 103.09 135.668V127.828C103.09 126.725 102.195 125.83 101.091 125.83Z" fill="url(#paint9_linear)"/>
<path opacity="0.7" d="M158.958 125.83H107.389C107.193 125.83 107.034 125.989 107.034 126.185V126.789C107.034 126.985 107.193 127.144 107.389 127.144H158.958C159.155 127.144 159.314 126.985 159.314 126.789V126.185C159.314 125.989 159.155 125.83 158.958 125.83Z" fill="url(#paint10_linear)"/>
<path opacity="0.7" d="M158.958 129.774H107.389C107.193 129.774 107.034 129.933 107.034 130.129V130.733C107.034 130.929 107.193 131.088 107.389 131.088H158.958C159.155 131.088 159.314 130.929 159.314 130.733V130.129C159.314 129.933 159.155 129.774 158.958 129.774Z" fill="url(#paint11_linear)"/>
<path opacity="0.7" d="M158.958 144.097H88.9793C88.7831 144.097 88.624 144.256 88.624 144.453V145.057C88.624 145.253 88.7831 145.412 88.9793 145.412H158.958C159.155 145.412 159.314 145.253 159.314 145.057V144.453C159.314 144.256 159.155 144.097 158.958 144.097Z" fill="url(#paint12_linear)"/>
<path opacity="0.7" d="M158.958 148.041H88.9793C88.7831 148.041 88.624 148.2 88.624 148.397V149.001C88.624 149.197 88.7831 149.356 88.9793 149.356H158.958C159.155 149.356 159.314 149.197 159.314 149.001V148.397C159.314 148.2 159.155 148.041 158.958 148.041Z" fill="url(#paint13_linear)"/>
<path opacity="0.7" d="M158.958 153.3H88.9793C88.7831 153.3 88.624 153.459 88.624 153.655V154.259C88.624 154.456 88.7831 154.615 88.9793 154.615H158.958C159.155 154.615 159.314 154.456 159.314 154.259V153.655C159.314 153.459 159.155 153.3 158.958 153.3Z" fill="url(#paint14_linear)"/>
<path opacity="0.7" d="M129.036 157.248H88.9793C88.7831 157.248 88.624 157.407 88.624 157.604V158.208C88.624 158.404 88.7831 158.563 88.9793 158.563H129.036C129.233 158.563 129.392 158.404 129.392 158.208V157.604C129.392 157.407 129.233 157.248 129.036 157.248Z" fill="url(#paint15_linear)"/>
<path opacity="0.7" d="M158.958 162.494H88.9793C88.7831 162.494 88.624 162.653 88.624 162.849V163.453C88.624 163.649 88.7831 163.808 88.9793 163.808H158.958C159.155 163.808 159.314 163.649 159.314 163.453V162.849C159.314 162.653 159.155 162.494 158.958 162.494Z" fill="url(#paint16_linear)"/>
<path opacity="0.7" d="M158.958 166.438H88.9793C88.7831 166.438 88.624 166.597 88.624 166.793V167.397C88.624 167.593 88.7831 167.752 88.9793 167.752H158.958C159.155 167.752 159.314 167.593 159.314 167.397V166.793C159.314 166.597 159.155 166.438 158.958 166.438Z" fill="url(#paint17_linear)"/>
<path opacity="0.7" d="M158.958 171.701H88.9793C88.7831 171.701 88.624 171.86 88.624 172.056V172.66C88.624 172.856 88.7831 173.015 88.9793 173.015H158.958C159.155 173.015 159.314 172.856 159.314 172.66V172.056C159.314 171.86 159.155 171.701 158.958 171.701Z" fill="url(#paint18_linear)"/>
<path opacity="0.7" d="M129.036 175.645H88.9793C88.7831 175.645 88.624 175.804 88.624 176V176.604C88.624 176.8 88.7831 176.959 88.9793 176.959H129.036C129.233 176.959 129.392 176.8 129.392 176.604V176C129.392 175.804 129.233 175.645 129.036 175.645Z" fill="url(#paint19_linear)"/>
<g opacity="0.5">
<path opacity="0.5" d="M172.824 130.44H97.0005C95.8967 130.44 95.0019 131.335 95.0019 132.439V202.089C95.0019 203.193 95.8967 204.088 97.0005 204.088H172.824C173.928 204.088 174.823 203.193 174.823 202.089V132.439C174.823 131.335 173.928 130.44 172.824 130.44Z" fill="url(#paint20_linear)"/>
</g>
<path opacity="0.7" d="M171.958 131.013H97.9732C96.8694 131.013 95.9746 131.908 95.9746 133.012V200.876C95.9746 201.98 96.8694 202.875 97.9732 202.875H171.958C173.062 202.875 173.957 201.98 173.957 200.876V133.012C173.957 131.908 173.062 131.013 171.958 131.013Z" fill="url(#paint21_linear)"/>
<path opacity="0.7" d="M113.136 142.849H103.982C102.879 142.849 101.984 143.744 101.984 144.848V152.687C101.984 153.791 102.879 154.686 103.982 154.686H113.136C114.24 154.686 115.135 153.791 115.135 152.687V144.848C115.135 143.744 114.24 142.849 113.136 142.849Z" fill="url(#paint22_linear)"/>
<path opacity="0.7" d="M171.008 142.849H119.439C119.242 142.849 119.083 143.008 119.083 143.205V143.809C119.083 144.005 119.242 144.164 119.439 144.164H171.008C171.204 144.164 171.363 144.005 171.363 143.809V143.205C171.363 143.008 171.204 142.849 171.008 142.849Z" fill="url(#paint23_linear)"/>
<path opacity="0.7" d="M171.008 146.793H119.439C119.242 146.793 119.083 146.952 119.083 147.149V147.753C119.083 147.949 119.242 148.108 119.439 148.108H171.008C171.204 148.108 171.363 147.949 171.363 147.753V147.149C171.363 146.952 171.204 146.793 171.008 146.793Z" fill="url(#paint24_linear)"/>
<path opacity="0.7" d="M171.003 161.112H101.024C100.828 161.112 100.669 161.271 100.669 161.468V162.072C100.669 162.268 100.828 162.427 101.024 162.427H171.003C171.2 162.427 171.359 162.268 171.359 162.072V161.468C171.359 161.271 171.2 161.112 171.003 161.112Z" fill="url(#paint25_linear)"/>
<path opacity="0.7" d="M171.003 165.061H101.024C100.828 165.061 100.669 165.22 100.669 165.416V166.02C100.669 166.216 100.828 166.375 101.024 166.375H171.003C171.2 166.375 171.359 166.216 171.359 166.02V165.416C171.359 165.22 171.2 165.061 171.003 165.061Z" fill="url(#paint26_linear)"/>
<path opacity="0.7" d="M171.003 170.32H101.024C100.828 170.32 100.669 170.479 100.669 170.675V171.279C100.669 171.475 100.828 171.634 101.024 171.634H171.003C171.2 171.634 171.359 171.475 171.359 171.279V170.675C171.359 170.479 171.2 170.32 171.003 170.32Z" fill="url(#paint27_linear)"/>
<path opacity="0.7" d="M141.082 174.263H101.024C100.828 174.263 100.669 174.423 100.669 174.619V175.223C100.669 175.419 100.828 175.578 101.024 175.578H141.082C141.278 175.578 141.437 175.419 141.437 175.223V174.619C141.437 174.423 141.278 174.263 141.082 174.263Z" fill="url(#paint28_linear)"/>
<path opacity="0.7" d="M171.003 179.513H101.024C100.828 179.513 100.669 179.672 100.669 179.869V180.473C100.669 180.669 100.828 180.828 101.024 180.828H171.003C171.2 180.828 171.359 180.669 171.359 180.473V179.869C171.359 179.672 171.2 179.513 171.003 179.513Z" fill="url(#paint29_linear)"/>
<path opacity="0.7" d="M171.003 183.457H101.024C100.828 183.457 100.669 183.616 100.669 183.812V184.417C100.669 184.613 100.828 184.772 101.024 184.772H171.003C171.2 184.772 171.359 184.613 171.359 184.417V183.812C171.359 183.616 171.2 183.457 171.003 183.457Z" fill="url(#paint30_linear)"/>
<path opacity="0.7" d="M171.003 188.72H101.024C100.828 188.72 100.669 188.879 100.669 189.076V189.68C100.669 189.876 100.828 190.035 101.024 190.035H171.003C171.2 190.035 171.359 189.876 171.359 189.68V189.076C171.359 188.879 171.2 188.72 171.003 188.72Z" fill="url(#paint31_linear)"/>
<path opacity="0.7" d="M141.082 192.664H101.024C100.828 192.664 100.669 192.823 100.669 193.02V193.624C100.669 193.82 100.828 193.979 101.024 193.979H141.082C141.278 193.979 141.437 193.82 141.437 193.624V193.02C141.437 192.823 141.278 192.664 141.082 192.664Z" fill="url(#paint32_linear)"/>
<g opacity="0.5">
<path opacity="0.5" d="M210.581 139.971H141.419V221.231H210.581V139.971Z" fill="url(#paint33_linear)"/>
</g>
<path opacity="0.7" d="M209.111 141.281H143.547V219.437H209.111V141.281Z" fill="url(#paint34_linear)"/>
<g opacity="0.5">
<path opacity="0.5" d="M179.9 153.709V151.745H172.771V153.709H167.757V163.351H184.901V153.709H179.9ZM173.659 152.452H178.989V153.7H173.659V152.452Z" fill="url(#paint35_linear)"/>
</g>
<path opacity="0.7" d="M184.177 154.033H168.481V162.862H184.177V154.033Z" fill="url(#paint36_linear)"/>
<path opacity="0.7" d="M173.06 152.234V154.526H173.877V152.891H178.78V154.526H179.598V152.234H173.06Z" fill="url(#paint37_linear)"/>
<path opacity="0.7" d="M199.464 175.569H153.358V177.532H199.464V175.569Z" fill="url(#paint38_linear)"/>
<path opacity="0.7" d="M199.464 188.485H153.358V190.448H199.464V188.485Z" fill="url(#paint39_linear)"/>
<path opacity="0.7" d="M199.464 191.918H153.358V193.881H199.464V191.918Z" fill="url(#paint40_linear)"/>
<path opacity="0.7" d="M172.816 185.052H153.358V187.015H172.816V185.052Z" fill="url(#paint41_linear)"/>
<g opacity="0.6">
<path opacity="0.6" d="M199.464 185.052H184.914V187.015H199.464V185.052Z" fill="url(#paint42_linear)"/>
</g>
<path opacity="0.7" d="M184.092 199.93H169.542V201.893H184.092V199.93Z" fill="url(#paint43_linear)"/>
<path opacity="0.7" d="M55.1757 162.751V311.956L162.72 339.546V191.469L55.1757 162.751Z" fill="url(#paint44_linear)"/>
<path opacity="0.7" d="M270.26 311.397L162.72 339.546V191.469L270.26 162.751V311.397Z" fill="url(#paint45_linear)"/>
<g opacity="0.07">
<path opacity="0.07" d="M270.26 311.397L162.72 339.546V191.469L270.26 162.751V311.397Z" fill="url(#paint46_linear)"/>
</g>
<g opacity="0.07">
<path opacity="0.07" d="M227.467 261.848V310.833L270.26 299.01V250.025L227.467 261.848Z" fill="url(#paint47_linear)"/>
</g>
<path opacity="0.7" d="M245.695 150.306H213.979V180.779H245.695V150.306Z" fill="url(#paint48_linear)"/>
<path opacity="0.7" d="M245.197 151.053H214.476V180.157H245.197V151.053Z" fill="url(#paint49_linear)"/>
<g opacity="0.5">
<path opacity="0.5" d="M232.553 156.156V154.672H227.121V156.165H223.314V163.502H236.359V156.156H232.553ZM227.8 155.205H231.878V156.156H227.8V155.205Z" fill="url(#paint50_linear)"/>
</g>
<g opacity="0.6">
<path opacity="0.6" d="M235.804 156.404H223.865V163.12H235.804V156.404Z" fill="url(#paint51_linear)"/>
</g>
<g opacity="0.6">
<path opacity="0.6" d="M227.347 155.032V156.778H227.974V155.534H231.704V156.778H232.326V155.032H227.347Z" fill="url(#paint52_linear)"/>
</g>
<g opacity="0.6">
<path opacity="0.6" d="M235.617 168.343H224.549V169.835H235.617V168.343Z" fill="url(#paint53_linear)"/>
</g>
<path opacity="0.7" d="M239.29 171.079H220.383V172.571H239.29V171.079Z" fill="url(#paint54_linear)"/>
<g opacity="0.5">
<path opacity="0.5" d="M179.882 57.1566H138.79V90.9114H179.882V57.1566Z" fill="url(#paint55_linear)"/>
</g>
<path opacity="0.7" d="M179.327 57.7962H139.27V90.3517H179.327V57.7962Z" fill="url(#paint56_linear)"/>
<path opacity="0.7" d="M179.327 57.7962H139.27V65.0579H179.327V57.7962Z" fill="url(#paint57_linear)"/>
<g opacity="0.1">
<path opacity="0.1" d="M179.327 57.7962H139.27V65.0579H179.327V57.7962Z" fill="url(#paint58_linear)"/>
</g>
<path opacity="0.7" d="M176.138 67.6916H142.463V71.9198H176.138V67.6916Z" fill="url(#paint59_linear)"/>
<path opacity="0.7" d="M167.042 75.1132H142.463V76.5478H167.042V75.1132Z" fill="url(#paint60_linear)"/>
<path opacity="0.7" d="M158.421 77.5871H142.463V79.0217H158.421V77.5871Z" fill="url(#paint61_linear)"/>
<path opacity="0.7" d="M163.529 80.061H142.463V81.4956H163.529V80.061Z" fill="url(#paint62_linear)"/>
<path opacity="0.7" d="M167.042 82.5304H142.463V83.965H167.042V82.5304Z" fill="url(#paint63_linear)"/>
<path opacity="0.7" d="M150.68 85.0043H142.463V86.4389H150.68V85.0043Z" fill="url(#paint64_linear)"/>
<g opacity="0.5">
<path opacity="0.5" d="M250.141 82.5038H199.206V124.337H250.141V82.5038Z" fill="url(#paint65_linear)"/>
</g>
<path opacity="0.7" d="M249.452 83.2943H199.802V123.645H249.452V83.2943Z" fill="url(#paint66_linear)"/>
<path opacity="0.7" d="M249.452 83.2943H199.802V92.2927H249.452V83.2943Z" fill="url(#paint67_linear)"/>
<path opacity="0.7" d="M245.49 95.5571H203.754V100.798H245.49V95.5571Z" fill="url(#paint68_linear)"/>
<path opacity="0.7" d="M234.218 104.755H203.754V106.536H234.218V104.755Z" fill="url(#paint69_linear)"/>
<path opacity="0.7" d="M223.537 107.82H203.754V109.601H223.537V107.82Z" fill="url(#paint70_linear)"/>
<path opacity="0.7" d="M229.866 110.889H203.754V112.67H229.866V110.889Z" fill="url(#paint71_linear)"/>
<path opacity="0.7" d="M234.218 113.953H203.754V115.734H234.218V113.953Z" fill="url(#paint72_linear)"/>
<path opacity="0.7" d="M213.943 117.018H203.754V118.799H213.943V117.018Z" fill="url(#paint73_linear)"/>
<path opacity="0.7" d="M217.798 97.3381H205.931V98.9192H217.798V97.3381Z" fill="url(#paint74_linear)"/>
<g opacity="0.1">
<path opacity="0.1" d="M53.7722 240.17L114.016 255.373L162.436 215.959V191.749L54.8959 164.723L53.7722 240.17Z" fill="url(#paint75_linear)"/>
</g>
<g opacity="0.1">
<path opacity="0.1" d="M271.104 240.17L210.856 255.373L162.436 215.959V191.749L269.976 164.723L271.104 240.17Z" fill="url(#paint76_linear)"/>
</g>
<path opacity="0.7" d="M55.1757 162.751L0 208.36L107.54 235.386L162.72 191.469L55.1757 162.751Z" fill="url(#paint77_linear)"/>
<path opacity="0.7" d="M270.26 162.751L326 208.36L219.024 235.386L162.72 191.469L270.26 162.751Z" fill="url(#paint78_linear)"/>
<g opacity="0.07">
<path opacity="0.07" d="M270.26 162.751L326 208.36L219.024 235.386L162.72 191.469L270.26 162.751Z" fill="url(#paint79_linear)"/>
</g>
</g>
<path d="M270.456 161.383L163.835 135.703V336.664L270.456 308.754V161.383Z" fill="#535461"/>
<path opacity="0.1" d="M270.456 161.383L163.835 135.703V336.664L270.456 308.754V161.383Z" fill="black"/>
<path d="M57.2188 161.383L163.835 135.703V336.664L57.2188 309.309V161.383Z" fill="#535461"/>
<path opacity="0.17" d="M57.2188 160.495L163.835 134.815V336.664L57.2188 309.309V160.495Z" fill="black"/>
<path d="M162.947 136.591L219.1 89.9298L325.72 117.285L269.567 162.272L162.947 136.591Z" fill="#535461"/>
<path d="M3.40216 118.728L58.1071 162.272L164.723 136.591L110.578 90.8181L3.40216 118.728Z" fill="#535461"/>
<path opacity="0.05" d="M2.51385 117.84L58.5512 162.272L165.167 136.591L109.69 89.9298L2.51385 117.84Z" fill="black"/>
<g opacity="0.5">
<path opacity="0.5" d="M161.894 112.474H86.7542C85.6504 112.474 84.7556 113.369 84.7556 114.473V183.493C84.7556 184.597 85.6504 185.491 86.7542 185.491H161.894C162.998 185.491 163.893 184.597 163.893 183.493V114.473C163.893 113.369 162.998 112.474 161.894 112.474Z" fill="url(#paint80_linear)"/>
</g>
<path d="M161.037 113.043H87.7224C86.6186 113.043 85.7238 113.938 85.7238 115.042V182.289C85.7238 183.393 86.6186 184.288 87.7224 184.288H161.037C162.141 184.288 163.035 183.393 163.035 182.289V115.042C163.035 113.938 162.141 113.043 161.037 113.043Z" fill="#F5F5F5"/>
<path d="M102.721 124.777H93.6784C92.5746 124.777 91.6797 125.672 91.6797 126.776V134.513C91.6797 135.617 92.5746 136.511 93.6784 136.511H102.721C103.825 136.511 104.72 135.617 104.72 134.513V126.776C104.72 125.672 103.825 124.777 102.721 124.777Z" fill="#6C63FF"/>
<path d="M160.109 124.777H108.988C108.792 124.777 108.633 124.936 108.633 125.132V125.728C108.633 125.924 108.792 126.083 108.988 126.083H160.109C160.305 126.083 160.464 125.924 160.464 125.728V125.132C160.464 124.936 160.305 124.777 160.109 124.777Z" fill="#E0E0E0"/>
<path d="M160.109 128.686H108.988C108.792 128.686 108.633 128.845 108.633 129.041V129.636C108.633 129.832 108.792 129.991 108.988 129.991H160.109C160.305 129.991 160.464 129.832 160.464 129.636V129.041C160.464 128.845 160.305 128.686 160.109 128.686Z" fill="#E0E0E0"/>
<path d="M160.109 142.885H90.7337C90.5375 142.885 90.3784 143.044 90.3784 143.24V143.835C90.3784 144.032 90.5375 144.191 90.7337 144.191H160.109C160.305 144.191 160.464 144.032 160.464 143.835V143.24C160.464 143.044 160.305 142.885 160.109 142.885Z" fill="#E0E0E0"/>
<path d="M160.109 146.798H90.7337C90.5375 146.798 90.3784 146.957 90.3784 147.153V147.748C90.3784 147.944 90.5375 148.103 90.7337 148.103H160.109C160.305 148.103 160.464 147.944 160.464 147.748V147.153C160.464 146.957 160.305 146.798 160.109 146.798Z" fill="#E0E0E0"/>
<path d="M160.109 152.012H90.7337C90.5375 152.012 90.3784 152.171 90.3784 152.367V152.962C90.3784 153.159 90.5375 153.318 90.7337 153.318H160.109C160.305 153.318 160.464 153.159 160.464 152.962V152.367C160.464 152.171 160.305 152.012 160.109 152.012Z" fill="#E0E0E0"/>
<path d="M130.444 155.925H90.7337C90.5375 155.925 90.3784 156.084 90.3784 156.28V156.875C90.3784 157.072 90.5375 157.231 90.7337 157.231H130.444C130.641 157.231 130.8 157.072 130.8 156.875V156.28C130.8 156.084 130.641 155.925 130.444 155.925Z" fill="#E0E0E0"/>
<path d="M160.109 161.126H90.7337C90.5375 161.126 90.3784 161.285 90.3784 161.481V162.076C90.3784 162.272 90.5375 162.431 90.7337 162.431H160.109C160.305 162.431 160.464 162.272 160.464 162.076V161.481C160.464 161.285 160.305 161.126 160.109 161.126Z" fill="#E0E0E0"/>
<path d="M160.109 165.039H90.7337C90.5375 165.039 90.3784 165.198 90.3784 165.394V165.989C90.3784 166.185 90.5375 166.344 90.7337 166.344H160.109C160.305 166.344 160.464 166.185 160.464 165.989V165.394C160.464 165.198 160.305 165.039 160.109 165.039Z" fill="#E0E0E0"/>
<path d="M160.109 170.253H90.7337C90.5375 170.253 90.3784 170.412 90.3784 170.608V171.203C90.3784 171.4 90.5375 171.559 90.7337 171.559H160.109C160.305 171.559 160.464 171.4 160.464 171.203V170.608C160.464 170.412 160.305 170.253 160.109 170.253Z" fill="#E0E0E0"/>
<path d="M130.444 174.166H90.7337C90.5375 174.166 90.3784 174.325 90.3784 174.521V175.116C90.3784 175.312 90.5375 175.472 90.7337 175.472H130.444C130.641 175.472 130.8 175.312 130.8 175.116V174.521C130.8 174.325 130.641 174.166 130.444 174.166Z" fill="#E0E0E0"/>
<g opacity="0.5">
<path opacity="0.5" d="M173.837 129.347H98.6972C97.5934 129.347 96.6985 130.242 96.6985 131.346V200.366C96.6985 201.469 97.5934 202.364 98.6972 202.364H173.837C174.941 202.364 175.836 201.469 175.836 200.366V131.346C175.836 130.242 174.941 129.347 173.837 129.347Z" fill="url(#paint81_linear)"/>
</g>
<path d="M172.98 129.916H99.6654C98.5616 129.916 97.6667 130.811 97.6667 131.915V199.162C97.6667 200.266 98.5616 201.161 99.6654 201.161H172.98C174.084 201.161 174.978 200.266 174.978 199.162V131.915C174.978 130.811 174.084 129.916 172.98 129.916Z" fill="white"/>
<path d="M114.664 141.65H105.621C104.518 141.65 103.623 142.545 103.623 143.649V151.386C103.623 152.49 104.518 153.384 105.621 153.384H114.664C115.768 153.384 116.663 152.49 116.663 151.386V143.649C116.663 142.545 115.768 141.65 114.664 141.65Z" fill="#6C63FF"/>
<path d="M172.052 141.65H120.931C120.735 141.65 120.576 141.809 120.576 142.005V142.601C120.576 142.797 120.735 142.956 120.931 142.956H172.052C172.248 142.956 172.407 142.797 172.407 142.601V142.005C172.407 141.809 172.248 141.65 172.052 141.65Z" fill="#E0E0E0"/>
<path d="M172.052 145.559H120.931C120.735 145.559 120.576 145.718 120.576 145.914V146.509C120.576 146.705 120.735 146.864 120.931 146.864H172.052C172.248 146.864 172.407 146.705 172.407 146.509V145.914C172.407 145.718 172.248 145.559 172.052 145.559Z" fill="#E0E0E0"/>
<path d="M172.052 159.758H102.677C102.48 159.758 102.321 159.917 102.321 160.113V160.708C102.321 160.904 102.48 161.064 102.677 161.064H172.052C172.248 161.064 172.407 160.904 172.407 160.708V160.113C172.407 159.917 172.248 159.758 172.052 159.758Z" fill="#E0E0E0"/>
<path d="M172.052 163.671H102.677C102.48 163.671 102.321 163.83 102.321 164.026V164.621C102.321 164.817 102.48 164.976 102.677 164.976H172.052C172.248 164.976 172.407 164.817 172.407 164.621V164.026C172.407 163.83 172.248 163.671 172.052 163.671Z" fill="#E0E0E0"/>
<path d="M172.052 168.885H102.677C102.48 168.885 102.321 169.044 102.321 169.24V169.835C102.321 170.032 102.48 170.191 102.677 170.191H172.052C172.248 170.191 172.407 170.032 172.407 169.835V169.24C172.407 169.044 172.248 168.885 172.052 168.885Z" fill="#E0E0E0"/>
<path d="M142.387 172.798H102.677C102.48 172.798 102.321 172.957 102.321 173.153V173.748C102.321 173.944 102.48 174.104 102.677 174.104H142.387C142.584 174.104 142.743 173.944 142.743 173.748V173.153C142.743 172.957 142.584 172.798 142.387 172.798Z" fill="#E0E0E0"/>
<path d="M172.052 177.999H102.677C102.48 177.999 102.321 178.158 102.321 178.354V178.949C102.321 179.145 102.48 179.304 102.677 179.304H172.052C172.248 179.304 172.407 179.145 172.407 178.949V178.354C172.407 178.158 172.248 177.999 172.052 177.999Z" fill="#E0E0E0"/>
<path d="M172.052 181.912H102.677C102.48 181.912 102.321 182.071 102.321 182.267V182.862C102.321 183.058 102.48 183.217 102.677 183.217H172.052C172.248 183.217 172.407 183.058 172.407 182.862V182.267C172.407 182.071 172.248 181.912 172.052 181.912Z" fill="#E0E0E0"/>
<path d="M172.052 187.126H102.677C102.48 187.126 102.321 187.285 102.321 187.481V188.076C102.321 188.272 102.48 188.432 102.677 188.432H172.052C172.248 188.432 172.407 188.272 172.407 188.076V187.481C172.407 187.285 172.248 187.126 172.052 187.126Z" fill="#E0E0E0"/>
<path d="M142.387 191.039H102.677C102.48 191.039 102.321 191.198 102.321 191.394V191.989C102.321 192.185 102.48 192.344 102.677 192.344H142.387C142.584 192.344 142.743 192.185 142.743 191.989V191.394C142.743 191.198 142.584 191.039 142.387 191.039Z" fill="#E0E0E0"/>
<g opacity="0.5">
<path opacity="0.5" d="M211.292 138.799H142.721V219.362H211.292V138.799Z" fill="url(#paint82_linear)"/>
</g>
<path d="M209.835 140.096H144.83V217.581H209.835V140.096Z" fill="white"/>
<g opacity="0.5">
<path opacity="0.5" d="M180.872 152.416V150.466H173.788V152.416H168.832V161.978H185.829V152.416H180.872ZM174.654 151.177H179.984V152.416H174.654V151.177Z" fill="url(#paint83_linear)"/>
</g>
<path d="M185.114 152.74H169.551V161.494H185.114V152.74Z" fill="#6C63FF"/>
<path d="M174.09 150.955V153.224H174.899V151.603H179.762V153.224H180.575V150.955H174.09Z" fill="#6C63FF"/>
<path d="M200.268 174.09H154.557V176.036H200.268V174.09Z" fill="#E0E0E0"/>
<path d="M200.268 186.895H154.557V188.84H200.268V186.895Z" fill="#E0E0E0"/>
<path d="M200.268 190.301H154.557V192.247H200.268V190.301Z" fill="#E0E0E0"/>
<path d="M173.846 183.493H154.557V185.438H173.846V183.493Z" fill="#E0E0E0"/>
<path opacity="0.6" d="M200.268 183.493H185.842V185.438H200.268V183.493Z" fill="#3AD29F"/>
<path d="M185.029 198.243H170.604V200.188H185.029V198.243Z" fill="#6C63FF"/>
<path d="M57.2188 161.383V309.309L163.835 336.664L165.274 189.853L57.2188 161.383Z" fill="#535461"/>
<path d="M270.456 308.754L163.835 336.664V189.853L270.456 161.383V308.754Z" fill="#535461"/>
<path opacity="0.07" d="M270.456 308.754L163.835 336.664V189.853L270.456 161.383V308.754Z" fill="black"/>
<path opacity="0.07" d="M228.031 259.632V308.194L270.456 296.473V247.907L228.031 259.632Z" fill="black"/>
<path d="M246.103 149.045H214.658V179.256H246.103V149.045Z" fill="url(#paint84_linear)"/>
<path d="M245.61 149.782H215.151V178.638H245.61V149.782Z" fill="#F5F5F5"/>
<g opacity="0.5">
<path opacity="0.5" d="M233.077 154.841V153.34H227.689V154.823H223.918V162.098H236.847V154.841H233.077ZM228.364 153.9H232.406V154.841H228.364V153.9Z" fill="url(#paint85_linear)"/>
</g>
<path opacity="0.6" d="M236.297 155.085H224.46V161.743H236.297V155.085Z" fill="#6C63FF"/>
<path opacity="0.6" d="M227.916 153.731V155.458H228.533V154.224H232.233V155.458H232.846V153.731H227.916Z" fill="#6C63FF"/>
<g opacity="0.6">
<path opacity="0.6" d="M236.115 166.926H225.14V168.405H236.115V166.926Z" fill="#6C63FF"/>
</g>
<path d="M239.752 169.64H221.009V171.119H239.752V169.64Z" fill="#BDBDBD"/>
<path d="M215.959 0H184.514V30.2105H215.959V0Z" fill="url(#paint86_linear)"/>
<path d="M215.466 0.74173H185.007V29.5976H215.466V0.74173Z" fill="#F5F5F5"/>
<g opacity="0.5">
<path opacity="0.5" d="M202.933 5.79607V4.31708H197.545V5.79607H193.775V13.0711H206.704V5.79607H202.933ZM198.22 4.85449H202.262V5.79607H198.22V4.85449Z" fill="url(#paint87_linear)"/>
</g>
<path opacity="0.6" d="M206.153 6.04034H194.316V12.698H206.153V6.04034Z" fill="#6C63FF"/>
<path opacity="0.6" d="M197.772 4.6857V6.41341H198.389V5.1787H202.089V6.41341H202.702V4.6857H197.772Z" fill="#6C63FF"/>
<g opacity="0.6">
<path opacity="0.6" d="M205.971 17.8811H194.996V19.3601H205.971V17.8811Z" fill="#6C63FF"/>
</g>
<path d="M209.608 20.5948H190.865V22.0738H209.608V20.5948Z" fill="#BDBDBD"/>
<g opacity="0.5">
<path opacity="0.5" d="M180.855 56.6902H140.113V90.1563H180.855V56.6902Z" fill="url(#paint88_linear)"/>
</g>
<path d="M180.304 57.3254H140.589V89.6012H180.304V57.3254Z" fill="#F2F2F2"/>
<path d="M180.304 57.3254H140.589V64.5249H180.304V57.3254Z" fill="#6C63FF"/>
<path opacity="0.1" d="M180.304 57.3254H140.589V64.5249H180.304V57.3254Z" fill="black"/>
<path d="M177.141 67.1364H143.755V71.3291H177.141V67.1364Z" fill="#E0E0E0"/>
<path d="M168.121 74.4915H143.755V75.9172H168.121V74.4915Z" fill="#E0E0E0"/>
<path d="M159.576 76.9431H143.755V78.3688H159.576V76.9431Z" fill="#E0E0E0"/>
<path d="M164.639 79.3948H143.755V80.8204H164.639V79.3948Z" fill="#E0E0E0"/>
<path d="M168.121 81.8509H143.755V83.2766H168.121V81.8509Z" fill="#E0E0E0"/>
<path d="M151.905 84.3025H143.755V85.7282H151.905V84.3025Z" fill="#E0E0E0"/>
<g opacity="0.5">
<path opacity="0.5" d="M250.509 81.8198H200.01V123.298H250.509V81.8198Z" fill="url(#paint89_linear)"/>
</g>
<path d="M249.825 82.6015H200.601V122.61H249.825V82.6015Z" fill="white"/>
<path d="M249.825 82.6015H200.601V91.5243H249.825V82.6015Z" fill="#6C63FF"/>
<path d="M245.903 94.7621H204.523V99.9585H245.903V94.7621Z" fill="#F5F5F5"/>
<path d="M234.724 103.88H204.523V105.644H234.724V103.88Z" fill="#E0E0E0"/>
<path d="M224.136 106.923H204.523V108.686H224.136V106.923Z" fill="#E0E0E0"/>
<path d="M230.407 109.961H204.523V111.724H230.407V109.961Z" fill="#E0E0E0"/>
<path d="M234.724 113.003H204.523V114.766H234.724V113.003Z" fill="#E0E0E0"/>
<path d="M214.623 116.041H204.523V117.804H214.623V116.041Z" fill="#E0E0E0"/>
<path d="M218.447 96.5253H206.681V98.0931H218.447V96.5253Z" fill="#69F0AE"/>
<path opacity="0.1" d="M55.8242 238.14L115.552 253.21L163.56 214.134V190.133L56.939 163.338L55.8242 238.14Z" fill="black"/>
<path opacity="0.1" d="M271.295 238.14L211.567 253.21L163.56 214.134V190.133L270.18 163.338L271.295 238.14Z" fill="black"/>
<path d="M57.2188 161.383L2.51385 206.597L109.13 233.392L163.835 189.853L57.2188 161.383Z" fill="#535461"/>
<path d="M270.456 161.383L325.72 206.597L219.659 233.392L163.835 189.853L270.456 161.383Z" fill="#535461"/>
<path opacity="0.07" d="M270.456 161.383L325.72 206.597L219.659 233.392L163.835 189.853L270.456 161.383Z" fill="black"/>
</g>
<defs>
<linearGradient id="paint0_linear" x1="162.72" y1="238.202" x2="270.26" y2="238.202" gradientUnits="userSpaceOnUse">
<stop stop-color="#808080" stop-opacity="0.25"/>
<stop offset="0.54" stop-color="#808080" stop-opacity="0.12"/>
<stop offset="1" stop-color="#808080" stop-opacity="0.1"/>
</linearGradient>
<linearGradient id="paint1_linear" x1="162.72" y1="238.202" x2="270.26" y2="238.202" gradientUnits="userSpaceOnUse">
<stop stop-color="#808080" stop-opacity="0.25"/>
<stop offset="0.54" stop-color="#808080" stop-opacity="0.12"/>
<stop offset="1" stop-color="#808080" stop-opacity="0.1"/>
</linearGradient>
<linearGradient id="paint2_linear" x1="13415.4" y1="108845" x2="39456.2" y2="108845" gradientUnits="userSpaceOnUse">
<stop stop-color="#808080" stop-opacity="0.25"/>
<stop offset="0.54" stop-color="#808080" stop-opacity="0.12"/>
<stop offset="1" stop-color="#808080" stop-opacity="0.1"/>
</linearGradient>
<linearGradient id="paint3_linear" x1="13415.4" y1="108845" x2="39456.2" y2="108845" gradientUnits="userSpaceOnUse">
<stop stop-color="#808080" stop-opacity="0.25"/>
<stop offset="0.54" stop-color="#808080" stop-opacity="0.12"/>
<stop offset="1" stop-color="#808080" stop-opacity="0.1"/>
</linearGradient>
<linearGradient id="paint4_linear" x1="59983.5" y1="20652" x2="120010" y2="20652" gradientUnits="userSpaceOnUse">
<stop stop-color="#808080" stop-opacity="0.25"/>
<stop offset="0.54" stop-color="#808080" stop-opacity="0.12"/>
<stop offset="1" stop-color="#808080" stop-opacity="0.1"/>
</linearGradient>
<linearGradient id="paint5_linear" x1="0" y1="20652" x2="59615.8" y2="20652" gradientUnits="userSpaceOnUse">
<stop stop-color="#808080" stop-opacity="0.25"/>
<stop offset="0.54" stop-color="#808080" stop-opacity="0.12"/>
<stop offset="1" stop-color="#808080" stop-opacity="0.1"/>
</linearGradient>
<linearGradient id="paint6_linear" x1="0" y1="20652" x2="59615.8" y2="20652" gradientUnits="userSpaceOnUse">
<stop stop-color="#808080" stop-opacity="0.25"/>
<stop offset="0.54" stop-color="#808080" stop-opacity="0.12"/>
<stop offset="1" stop-color="#808080" stop-opacity="0.1"/>
</linearGradient>
<linearGradient id="paint7_linear" x1="22164.7" y1="31133.1" x2="22164.7" y2="18921.6" gradientUnits="userSpaceOnUse">
<stop stop-color="#808080" stop-opacity="0.25"/>
<stop offset="0.54" stop-color="#808080" stop-opacity="0.12"/>
<stop offset="1" stop-color="#808080" stop-opacity="0.1"/>
</linearGradient>
<linearGradient id="paint8_linear" x1="14820.3" y1="24371.8" x2="28512.4" y2="24371.8" gradientUnits="userSpaceOnUse">
<stop stop-color="#808080" stop-opacity="0.25"/>
<stop offset="0.54" stop-color="#808080" stop-opacity="0.12"/>
<stop offset="1" stop-color="#808080" stop-opacity="0.1"/>
</linearGradient>
<linearGradient id="paint9_linear" x1="2753.02" y1="3636.85" x2="3142.42" y2="3636.85" gradientUnits="userSpaceOnUse">
<stop stop-color="#808080" stop-opacity="0.25"/>
<stop offset="0.54" stop-color="#808080" stop-opacity="0.12"/>
<stop offset="1" stop-color="#808080" stop-opacity="0.1"/>
</linearGradient>
<linearGradient id="paint10_linear" x1="12706" y1="500.232" x2="18859.8" y2="500.232" gradientUnits="userSpaceOnUse">
<stop stop-color="#808080" stop-opacity="0.25"/>
<stop offset="0.54" stop-color="#808080" stop-opacity="0.12"/>
<stop offset="1" stop-color="#808080" stop-opacity="0.1"/>
</linearGradient>
<linearGradient id="paint11_linear" x1="12706" y1="515.847" x2="18859.8" y2="515.847" gradientUnits="userSpaceOnUse">
<stop stop-color="#808080" stop-opacity="0.25"/>
<stop offset="0.54" stop-color="#808080" stop-opacity="0.12"/>
<stop offset="1" stop-color="#808080" stop-opacity="0.1"/>
</linearGradient>
<linearGradient id="paint12_linear" x1="14194" y1="572.569" x2="25445" y2="572.569" gradientUnits="userSpaceOnUse">
<stop stop-color="#808080" stop-opacity="0.25"/>
<stop offset="0.54" stop-color="#808080" stop-opacity="0.12"/>
<stop offset="1" stop-color="#808080" stop-opacity="0.1"/>
</linearGradient>
<linearGradient id="paint13_linear" x1="14194" y1="588.182" x2="25445" y2="588.182" gradientUnits="userSpaceOnUse">
<stop stop-color="#808080" stop-opacity="0.25"/>
<stop offset="0.54" stop-color="#808080" stop-opacity="0.12"/>
<stop offset="1" stop-color="#808080" stop-opacity="0.1"/>
</linearGradient>
<linearGradient id="paint14_linear" x1="14194" y1="609.005" x2="25445" y2="609.005" gradientUnits="userSpaceOnUse">
<stop stop-color="#808080" stop-opacity="0.25"/>
<stop offset="0.54" stop-color="#808080" stop-opacity="0.12"/>
<stop offset="1" stop-color="#808080" stop-opacity="0.1"/>
</linearGradient>
<linearGradient id="paint15_linear" x1="8223.42" y1="624.657" x2="11965.5" y2="624.657" gradientUnits="userSpaceOnUse">
<stop stop-color="#808080" stop-opacity="0.25"/>
<stop offset="0.54" stop-color="#808080" stop-opacity="0.12"/>
<stop offset="1" stop-color="#808080" stop-opacity="0.1"/>
</linearGradient>
<linearGradient id="paint16_linear" x1="14194" y1="645.423" x2="25445" y2="645.423" gradientUnits="userSpaceOnUse">
<stop stop-color="#808080" stop-opacity="0.25"/>
<stop offset="0.54" stop-color="#808080" stop-opacity="0.12"/>
<stop offset="1" stop-color="#808080" stop-opacity="0.1"/>
</linearGradient>
<linearGradient id="paint17_linear" x1="14194" y1="661.042" x2="25445" y2="661.042" gradientUnits="userSpaceOnUse">
<stop stop-color="#808080" stop-opacity="0.25"/>
<stop offset="0.54" stop-color="#808080" stop-opacity="0.12"/>
<stop offset="1" stop-color="#808080" stop-opacity="0.1"/>
</linearGradient>
<linearGradient id="paint18_linear" x1="14194" y1="681.872" x2="25445" y2="681.872" gradientUnits="userSpaceOnUse">
<stop stop-color="#808080" stop-opacity="0.25"/>
<stop offset="0.54" stop-color="#808080" stop-opacity="0.12"/>
<stop offset="1" stop-color="#808080" stop-opacity="0.1"/>
</linearGradient>
<linearGradient id="paint19_linear" x1="8223.42" y1="697.502" x2="11965.5" y2="697.502" gradientUnits="userSpaceOnUse">
<stop stop-color="#808080" stop-opacity="0.25"/>
<stop offset="0.54" stop-color="#808080" stop-opacity="0.12"/>
<stop offset="1" stop-color="#808080" stop-opacity="0.1"/>
</linearGradient>
<linearGradient id="paint20_linear" x1="24341.5" y1="33972.2" x2="24341.5" y2="21760" gradientUnits="userSpaceOnUse">
<stop stop-color="#808080" stop-opacity="0.25"/>
<stop offset="0.54" stop-color="#808080" stop-opacity="0.12"/>
<stop offset="1" stop-color="#808080" stop-opacity="0.1"/>
</linearGradient>
<linearGradient id="paint21_linear" x1="16947.2" y1="27142.5" x2="30639.3" y2="27142.5" gradientUnits="userSpaceOnUse">
<stop stop-color="#808080" stop-opacity="0.25"/>
<stop offset="0.54" stop-color="#808080" stop-opacity="0.12"/>
<stop offset="1" stop-color="#808080" stop-opacity="0.1"/>
</linearGradient>
<linearGradient id="paint22_linear" x1="3121.73" y1="4107.44" x2="3511.13" y2="4107.44" gradientUnits="userSpaceOnUse">
<stop stop-color="#808080" stop-opacity="0.25"/>
<stop offset="0.54" stop-color="#808080" stop-opacity="0.12"/>
<stop offset="1" stop-color="#808080" stop-opacity="0.1"/>
</linearGradient>
<linearGradient id="paint23_linear" x1="14136.4" y1="567.626" x2="20290.2" y2="567.626" gradientUnits="userSpaceOnUse">
<stop stop-color="#808080" stop-opacity="0.25"/>
<stop offset="0.54" stop-color="#808080" stop-opacity="0.12"/>
<stop offset="1" stop-color="#808080" stop-opacity="0.1"/>
</linearGradient>
<linearGradient id="paint24_linear" x1="14136.4" y1="583.244" x2="20290.2" y2="583.244" gradientUnits="userSpaceOnUse">
<stop stop-color="#808080" stop-opacity="0.25"/>
<stop offset="0.54" stop-color="#808080" stop-opacity="0.12"/>
<stop offset="1" stop-color="#808080" stop-opacity="0.1"/>
</linearGradient>
<linearGradient id="paint25_linear" x1="16123.2" y1="639.942" x2="27374.8" y2="639.942" gradientUnits="userSpaceOnUse">
<stop stop-color="#808080" stop-opacity="0.25"/>
<stop offset="0.54" stop-color="#808080" stop-opacity="0.12"/>
<stop offset="1" stop-color="#808080" stop-opacity="0.1"/>
</linearGradient>
<linearGradient id="paint26_linear" x1="16123.2" y1="655.589" x2="27374.8" y2="655.589" gradientUnits="userSpaceOnUse">
<stop stop-color="#808080" stop-opacity="0.25"/>
<stop offset="0.54" stop-color="#808080" stop-opacity="0.12"/>
<stop offset="1" stop-color="#808080" stop-opacity="0.1"/>
</linearGradient>
<linearGradient id="paint27_linear" x1="16123.2" y1="676.408" x2="27374.8" y2="676.408" gradientUnits="userSpaceOnUse">
<stop stop-color="#808080" stop-opacity="0.25"/>
<stop offset="0.54" stop-color="#808080" stop-opacity="0.12"/>
<stop offset="1" stop-color="#808080" stop-opacity="0.1"/>
</linearGradient>
<linearGradient id="paint28_linear" x1="9341.1" y1="692.032" x2="13083.2" y2="692.032" gradientUnits="userSpaceOnUse">
<stop stop-color="#808080" stop-opacity="0.25"/>
<stop offset="0.54" stop-color="#808080" stop-opacity="0.12"/>
<stop offset="1" stop-color="#808080" stop-opacity="0.1"/>
</linearGradient>
<linearGradient id="paint29_linear" x1="16123.2" y1="712.821" x2="27374.8" y2="712.821" gradientUnits="userSpaceOnUse">
<stop stop-color="#808080" stop-opacity="0.25"/>
<stop offset="0.54" stop-color="#808080" stop-opacity="0.12"/>
<stop offset="1" stop-color="#808080" stop-opacity="0.1"/>
</linearGradient>
<linearGradient id="paint30_linear" x1="16123.2" y1="728.439" x2="27374.8" y2="728.439" gradientUnits="userSpaceOnUse">
<stop stop-color="#808080" stop-opacity="0.25"/>
<stop offset="0.54" stop-color="#808080" stop-opacity="0.12"/>
<stop offset="1" stop-color="#808080" stop-opacity="0.1"/>
</linearGradient>
<linearGradient id="paint31_linear" x1="16123.2" y1="749.281" x2="27374.8" y2="749.281" gradientUnits="userSpaceOnUse">
<stop stop-color="#808080" stop-opacity="0.25"/>
<stop offset="0.54" stop-color="#808080" stop-opacity="0.12"/>
<stop offset="1" stop-color="#808080" stop-opacity="0.1"/>
</linearGradient>
<linearGradient id="paint32_linear" x1="9341.1" y1="764.899" x2="13083.2" y2="764.899" gradientUnits="userSpaceOnUse">
<stop stop-color="#808080" stop-opacity="0.25"/>
<stop offset="0.54" stop-color="#808080" stop-opacity="0.12"/>
<stop offset="1" stop-color="#808080" stop-opacity="0.1"/>
</linearGradient>
<linearGradient id="paint33_linear" x1="27548.1" y1="40616.5" x2="27548.1" y2="25749.1" gradientUnits="userSpaceOnUse">
<stop stop-color="#808080" stop-opacity="0.25"/>
<stop offset="0.54" stop-color="#808080" stop-opacity="0.12"/>
<stop offset="1" stop-color="#808080" stop-opacity="0.1"/>
</linearGradient>
<linearGradient id="paint34_linear" x1="21333.9" y1="31878.7" x2="31012.5" y2="31878.7" gradientUnits="userSpaceOnUse">
<stop stop-color="#808080" stop-opacity="0.25"/>
<stop offset="0.54" stop-color="#808080" stop-opacity="0.12"/>
<stop offset="1" stop-color="#808080" stop-opacity="0.1"/>
</linearGradient>
<linearGradient id="paint35_linear" x1="10968.6" y1="5206.37" x2="10968.6" y2="4903.12" gradientUnits="userSpaceOnUse">
<stop stop-color="#808080" stop-opacity="0.25"/>
<stop offset="0.54" stop-color="#808080" stop-opacity="0.12"/>
<stop offset="1" stop-color="#808080" stop-opacity="0.1"/>
</linearGradient>
<linearGradient id="paint36_linear" x1="6122.61" y1="3303.98" x2="6677.31" y2="3303.98" gradientUnits="userSpaceOnUse">
<stop stop-color="#808080" stop-opacity="0.25"/>
<stop offset="0.54" stop-color="#808080" stop-opacity="0.12"/>
<stop offset="1" stop-color="#808080" stop-opacity="0.1"/>
</linearGradient>
<linearGradient id="paint37_linear" x1="2720.51" y1="943.677" x2="2816.74" y2="943.677" gradientUnits="userSpaceOnUse">
<stop stop-color="#808080" stop-opacity="0.25"/>
<stop offset="0.54" stop-color="#808080" stop-opacity="0.12"/>
<stop offset="1" stop-color="#808080" stop-opacity="0.1"/>
</linearGradient>
<linearGradient id="paint38_linear" x1="16073.4" y1="955.917" x2="20859.7" y2="955.917" gradientUnits="userSpaceOnUse">
<stop stop-color="#808080" stop-opacity="0.25"/>
<stop offset="0.54" stop-color="#808080" stop-opacity="0.12"/>
<stop offset="1" stop-color="#808080" stop-opacity="0.1"/>
</linearGradient>
<linearGradient id="paint39_linear" x1="16073.4" y1="1025.91" x2="20859.7" y2="1025.91" gradientUnits="userSpaceOnUse">
<stop stop-color="#808080" stop-opacity="0.25"/>
<stop offset="0.54" stop-color="#808080" stop-opacity="0.12"/>
<stop offset="1" stop-color="#808080" stop-opacity="0.1"/>
</linearGradient>
<linearGradient id="paint40_linear" x1="16073.4" y1="1044.54" x2="20859.7" y2="1044.54" gradientUnits="userSpaceOnUse">
<stop stop-color="#808080" stop-opacity="0.25"/>
<stop offset="0.54" stop-color="#808080" stop-opacity="0.12"/>
<stop offset="1" stop-color="#808080" stop-opacity="0.1"/>
</linearGradient>
<linearGradient id="paint41_linear" x1="6871.97" y1="1007.32" x2="7724.42" y2="1007.32" gradientUnits="userSpaceOnUse">
<stop stop-color="#808080" stop-opacity="0.25"/>
<stop offset="0.54" stop-color="#808080" stop-opacity="0.12"/>
<stop offset="1" stop-color="#808080" stop-opacity="0.1"/>
</linearGradient>
<linearGradient id="paint42_linear" x1="6242.71" y1="1007.32" x2="6719.37" y2="1007.32" gradientUnits="userSpaceOnUse">
<stop stop-color="#808080" stop-opacity="0.25"/>
<stop offset="0.54" stop-color="#808080" stop-opacity="0.12"/>
<stop offset="1" stop-color="#808080" stop-opacity="0.1"/>
</linearGradient>
<linearGradient id="paint43_linear" x1="5723.73" y1="1087.95" x2="6200.54" y2="1087.95" gradientUnits="userSpaceOnUse">
<stop stop-color="#808080" stop-opacity="0.25"/>
<stop offset="0.54" stop-color="#808080" stop-opacity="0.12"/>
<stop offset="1" stop-color="#808080" stop-opacity="0.1"/>
</linearGradient>
<linearGradient id="paint44_linear" x1="13415.4" y1="100135" x2="39456.2" y2="100135" gradientUnits="userSpaceOnUse">
<stop stop-color="#808080" stop-opacity="0.25"/>
<stop offset="0.54" stop-color="#808080" stop-opacity="0.12"/>
<stop offset="1" stop-color="#808080" stop-opacity="0.1"/>
</linearGradient>
<linearGradient id="paint45_linear" x1="39562.2" y1="100135" x2="65600.8" y2="100135" gradientUnits="userSpaceOnUse">
<stop stop-color="#808080" stop-opacity="0.25"/>
<stop offset="0.54" stop-color="#808080" stop-opacity="0.12"/>
<stop offset="1" stop-color="#808080" stop-opacity="0.1"/>
</linearGradient>
<linearGradient id="paint46_linear" x1="39562.2" y1="100135" x2="65600.8" y2="100135" gradientUnits="userSpaceOnUse">
<stop stop-color="#808080" stop-opacity="0.25"/>
<stop offset="0.54" stop-color="#808080" stop-opacity="0.12"/>
<stop offset="1" stop-color="#808080" stop-opacity="0.1"/>
</linearGradient>
<linearGradient id="paint47_linear" x1="22143.9" y1="38643.2" x2="26267" y2="38643.2" gradientUnits="userSpaceOnUse">
<stop stop-color="#808080" stop-opacity="0.25"/>
<stop offset="0.54" stop-color="#808080" stop-opacity="0.12"/>
<stop offset="1" stop-color="#808080" stop-opacity="0.1"/>
</linearGradient>
<linearGradient id="paint48_linear" x1="16626.8" y1="12553.5" x2="16626.8" y2="10462.8" gradientUnits="userSpaceOnUse">
<stop stop-color="#808080" stop-opacity="0.25"/>
<stop offset="0.54" stop-color="#808080" stop-opacity="0.12"/>
<stop offset="1" stop-color="#808080" stop-opacity="0.1"/>
</linearGradient>
<linearGradient id="paint49_linear" x1="15049.8" y1="11003.3" x2="17174.8" y2="11003.3" gradientUnits="userSpaceOnUse">
<stop stop-color="#808080" stop-opacity="0.25"/>
<stop offset="0.54" stop-color="#808080" stop-opacity="0.12"/>
<stop offset="1" stop-color="#808080" stop-opacity="0.1"/>
</linearGradient>
<linearGradient id="paint50_linear" x1="10013" y1="4003.11" x2="10013" y2="3827.49" gradientUnits="userSpaceOnUse">
<stop stop-color="#808080" stop-opacity="0.25"/>
<stop offset="0.54" stop-color="#808080" stop-opacity="0.12"/>
<stop offset="1" stop-color="#808080" stop-opacity="0.1"/>
</linearGradient>
<linearGradient id="paint51_linear" x1="6241.36" y1="2572.01" x2="6562.38" y2="2572.01" gradientUnits="userSpaceOnUse">
<stop stop-color="#808080" stop-opacity="0.25"/>
<stop offset="0.54" stop-color="#808080" stop-opacity="0.12"/>
<stop offset="1" stop-color="#808080" stop-opacity="0.1"/>
</linearGradient>
<linearGradient id="paint52_linear" x1="2775.96" y1="767.738" x2="2831.72" y2="767.738" gradientUnits="userSpaceOnUse">
<stop stop-color="#808080" stop-opacity="0.25"/>
<stop offset="0.54" stop-color="#808080" stop-opacity="0.12"/>
<stop offset="1" stop-color="#808080" stop-opacity="0.1"/>
</linearGradient>
<linearGradient id="paint53_linear" x1="5820.29" y1="736.498" x2="6096.21" y2="736.498" gradientUnits="userSpaceOnUse">
<stop stop-color="#808080" stop-opacity="0.25"/>
<stop offset="0.54" stop-color="#808080" stop-opacity="0.12"/>
<stop offset="1" stop-color="#808080" stop-opacity="0.1"/>
</linearGradient>
<linearGradient id="paint54_linear" x1="9602.1" y1="748.409" x2="10407" y2="748.409" gradientUnits="userSpaceOnUse">
<stop stop-color="#808080" stop-opacity="0.25"/>
<stop offset="0.54" stop-color="#808080" stop-opacity="0.12"/>
<stop offset="1" stop-color="#808080" stop-opacity="0.1"/>
</linearGradient>
<linearGradient id="paint55_linear" x1="14881" y1="6966.42" x2="14881" y2="4401.06" gradientUnits="userSpaceOnUse">
<stop stop-color="#808080" stop-opacity="0.25"/>
<stop offset="0.54" stop-color="#808080" stop-opacity="0.12"/>
<stop offset="1" stop-color="#808080" stop-opacity="0.1"/>
</linearGradient>
<linearGradient id="paint56_linear" x1="12700" y1="5487.41" x2="16312.8" y2="5487.41" gradientUnits="userSpaceOnUse">
<stop stop-color="#808080" stop-opacity="0.25"/>
<stop offset="0.54" stop-color="#808080" stop-opacity="0.12"/>
<stop offset="1" stop-color="#808080" stop-opacity="0.1"/>
</linearGradient>
<linearGradient id="paint57_linear" x1="12700" y1="1062.09" x2="16312.8" y2="1062.09" gradientUnits="userSpaceOnUse">
<stop stop-color="#808080" stop-opacity="0.25"/>
<stop offset="0.54" stop-color="#808080" stop-opacity="0.12"/>
<stop offset="1" stop-color="#808080" stop-opacity="0.1"/>
</linearGradient>
<linearGradient id="paint58_linear" x1="12700" y1="1062.09" x2="16312.8" y2="1062.09" gradientUnits="userSpaceOnUse">
<stop stop-color="#808080" stop-opacity="0.25"/>
<stop offset="0.54" stop-color="#808080" stop-opacity="0.12"/>
<stop offset="1" stop-color="#808080" stop-opacity="0.1"/>
</linearGradient>
<linearGradient id="paint59_linear" x1="10944" y1="732.242" x2="13496.9" y2="732.242" gradientUnits="userSpaceOnUse">
<stop stop-color="#808080" stop-opacity="0.25"/>
<stop offset="0.54" stop-color="#808080" stop-opacity="0.12"/>
<stop offset="1" stop-color="#808080" stop-opacity="0.1"/>
</linearGradient>
<linearGradient id="paint60_linear" x1="8026.35" y1="320.04" x2="9386.3" y2="320.04" gradientUnits="userSpaceOnUse">
<stop stop-color="#808080" stop-opacity="0.25"/>
<stop offset="0.54" stop-color="#808080" stop-opacity="0.12"/>
<stop offset="1" stop-color="#808080" stop-opacity="0.1"/>
</linearGradient>
<linearGradient id="paint61_linear" x1="5261.15" y1="330.503" x2="5834.52" y2="330.503" gradientUnits="userSpaceOnUse">
<stop stop-color="#808080" stop-opacity="0.25"/>
<stop offset="0.54" stop-color="#808080" stop-opacity="0.12"/>
<stop offset="1" stop-color="#808080" stop-opacity="0.1"/>
</linearGradient>
<linearGradient id="paint62_linear" x1="6899.47" y1="340.969" x2="7898.62" y2="340.969" gradientUnits="userSpaceOnUse">
<stop stop-color="#808080" stop-opacity="0.25"/>
<stop offset="0.54" stop-color="#808080" stop-opacity="0.12"/>
<stop offset="1" stop-color="#808080" stop-opacity="0.1"/>
</linearGradient>
<linearGradient id="paint63_linear" x1="8026.35" y1="351.429" x2="9386.3" y2="351.429" gradientUnits="userSpaceOnUse">
<stop stop-color="#808080" stop-opacity="0.25"/>
<stop offset="0.54" stop-color="#808080" stop-opacity="0.12"/>
<stop offset="1" stop-color="#808080" stop-opacity="0.1"/>
</linearGradient>
<linearGradient id="paint64_linear" x1="2778.02" y1="361.892" x2="2930.03" y2="361.892" gradientUnits="userSpaceOnUse">
<stop stop-color="#808080" stop-opacity="0.25"/>
<stop offset="0.54" stop-color="#808080" stop-opacity="0.12"/>
<stop offset="1" stop-color="#808080" stop-opacity="0.1"/>
</linearGradient>
<linearGradient id="paint65_linear" x1="25964.8" y1="11793.8" x2="25964.8" y2="7853.53" gradientUnits="userSpaceOnUse">
<stop stop-color="#808080" stop-opacity="0.25"/>
<stop offset="0.54" stop-color="#808080" stop-opacity="0.12"/>
<stop offset="1" stop-color="#808080" stop-opacity="0.1"/>
</linearGradient>
<linearGradient id="paint66_linear" x1="22535.6" y1="9483.29" x2="28085.6" y2="9483.29" gradientUnits="userSpaceOnUse">
<stop stop-color="#808080" stop-opacity="0.25"/>
<stop offset="0.54" stop-color="#808080" stop-opacity="0.12"/>
<stop offset="1" stop-color="#808080" stop-opacity="0.1"/>
</linearGradient>
<linearGradient id="paint67_linear" x1="22535.6" y1="1861.99" x2="28085.6" y2="1861.99" gradientUnits="userSpaceOnUse">
<stop stop-color="#808080" stop-opacity="0.25"/>
<stop offset="0.54" stop-color="#808080" stop-opacity="0.12"/>
<stop offset="1" stop-color="#808080" stop-opacity="0.1"/>
</linearGradient>
<linearGradient id="paint68_linear" x1="19350.5" y1="1254.05" x2="23272.5" y2="1254.05" gradientUnits="userSpaceOnUse">
<stop stop-color="#808080" stop-opacity="0.25"/>
<stop offset="0.54" stop-color="#808080" stop-opacity="0.12"/>
<stop offset="1" stop-color="#808080" stop-opacity="0.1"/>
</linearGradient>
<linearGradient id="paint69_linear" x1="14179.3" y1="528.384" x2="16268.8" y2="528.384" gradientUnits="userSpaceOnUse">
<stop stop-color="#808080" stop-opacity="0.25"/>
<stop offset="0.54" stop-color="#808080" stop-opacity="0.12"/>
<stop offset="1" stop-color="#808080" stop-opacity="0.1"/>
</linearGradient>
<linearGradient id="paint70_linear" x1="9278.97" y1="543.758" x2="10160.1" y2="543.758" gradientUnits="userSpaceOnUse">
<stop stop-color="#808080" stop-opacity="0.25"/>
<stop offset="0.54" stop-color="#808080" stop-opacity="0.12"/>
<stop offset="1" stop-color="#808080" stop-opacity="0.1"/>
</linearGradient>
<linearGradient id="paint71_linear" x1="12182.5" y1="559.118" x2="13717.5" y2="559.118" gradientUnits="userSpaceOnUse">
<stop stop-color="#808080" stop-opacity="0.25"/>
<stop offset="0.54" stop-color="#808080" stop-opacity="0.12"/>
<stop offset="1" stop-color="#808080" stop-opacity="0.1"/>
</linearGradient>
<linearGradient id="paint72_linear" x1="14179.3" y1="574.466" x2="16268.8" y2="574.466" gradientUnits="userSpaceOnUse">
<stop stop-color="#808080" stop-opacity="0.25"/>
<stop offset="0.54" stop-color="#808080" stop-opacity="0.12"/>
<stop offset="1" stop-color="#808080" stop-opacity="0.1"/>
</linearGradient>
<linearGradient id="paint73_linear" x1="4877.88" y1="589.844" x2="5111.6" y2="589.844" gradientUnits="userSpaceOnUse">
<stop stop-color="#808080" stop-opacity="0.25"/>
<stop offset="0.54" stop-color="#808080" stop-opacity="0.12"/>
<stop offset="1" stop-color="#808080" stop-opacity="0.1"/>
</linearGradient>
<linearGradient id="paint74_linear" x1="5708.41" y1="446.678" x2="6025.5" y2="446.678" gradientUnits="userSpaceOnUse">
<stop stop-color="#808080" stop-opacity="0.25"/>
<stop offset="0.54" stop-color="#808080" stop-opacity="0.12"/>
<stop offset="1" stop-color="#808080" stop-opacity="0.1"/>
</linearGradient>
<linearGradient id="paint75_linear" x1="13209.7" y1="43035.5" x2="39795.4" y2="43035.5" gradientUnits="userSpaceOnUse">
<stop stop-color="#808080" stop-opacity="0.25"/>
<stop offset="0.54" stop-color="#808080" stop-opacity="0.12"/>
<stop offset="1" stop-color="#808080" stop-opacity="0.1"/>
</linearGradient>
<linearGradient id="paint76_linear" x1="39905.6" y1="43035.5" x2="66493.5" y2="43035.5" gradientUnits="userSpaceOnUse">
<stop stop-color="#808080" stop-opacity="0.25"/>
<stop offset="0.54" stop-color="#808080" stop-opacity="0.12"/>
<stop offset="1" stop-color="#808080" stop-opacity="0.1"/>
</linearGradient>
<linearGradient id="paint77_linear" x1="0" y1="32718.4" x2="59615.8" y2="32718.4" gradientUnits="userSpaceOnUse">
<stop stop-color="#808080" stop-opacity="0.25"/>
<stop offset="0.54" stop-color="#808080" stop-opacity="0.12"/>
<stop offset="1" stop-color="#808080" stop-opacity="0.1"/>
</linearGradient>
<linearGradient id="paint78_linear" x1="59983.5" y1="32718.4" x2="120010" y2="32718.4" gradientUnits="userSpaceOnUse">
<stop stop-color="#808080" stop-opacity="0.25"/>
<stop offset="0.54" stop-color="#808080" stop-opacity="0.12"/>
<stop offset="1" stop-color="#808080" stop-opacity="0.1"/>
</linearGradient>
<linearGradient id="paint79_linear" x1="59983.5" y1="32718.4" x2="120010" y2="32718.4" gradientUnits="userSpaceOnUse">
<stop stop-color="#808080" stop-opacity="0.25"/>
<stop offset="0.54" stop-color="#808080" stop-opacity="0.12"/>
<stop offset="1" stop-color="#808080" stop-opacity="0.1"/>
</linearGradient>
<linearGradient id="paint80_linear" x1="22236.8" y1="30607.2" x2="22236.8" y2="18603.3" gradientUnits="userSpaceOnUse">
<stop stop-color="#808080" stop-opacity="0.25"/>
<stop offset="0.54" stop-color="#808080" stop-opacity="0.12"/>
<stop offset="1" stop-color="#808080" stop-opacity="0.1"/>
</linearGradient>
<linearGradient id="paint81_linear" x1="24377.6" y1="33398" x2="24377.6" y2="21394.1" gradientUnits="userSpaceOnUse">
<stop stop-color="#808080" stop-opacity="0.25"/>
<stop offset="0.54" stop-color="#808080" stop-opacity="0.12"/>
<stop offset="1" stop-color="#808080" stop-opacity="0.1"/>
</linearGradient>
<linearGradient id="paint82_linear" x1="27471" y1="39928.8" x2="27471" y2="25315.5" gradientUnits="userSpaceOnUse">
<stop stop-color="#808080" stop-opacity="0.25"/>
<stop offset="0.54" stop-color="#808080" stop-opacity="0.12"/>
<stop offset="1" stop-color="#808080" stop-opacity="0.1"/>
</linearGradient>
<linearGradient id="paint83_linear" x1="10915.7" y1="5128.9" x2="10915.7" y2="4830.51" gradientUnits="userSpaceOnUse">
<stop stop-color="#808080" stop-opacity="0.25"/>
<stop offset="0.54" stop-color="#808080" stop-opacity="0.12"/>
<stop offset="1" stop-color="#808080" stop-opacity="0.1"/>
</linearGradient>
<linearGradient id="paint84_linear" x1="16525.6" y1="12342" x2="16525.6" y2="10287.1" gradientUnits="userSpaceOnUse">
<stop stop-color="#808080" stop-opacity="0.25"/>
<stop offset="0.54" stop-color="#808080" stop-opacity="0.12"/>
<stop offset="1" stop-color="#808080" stop-opacity="0.1"/>
</linearGradient>
<linearGradient id="paint85_linear" x1="9942.75" y1="3943.65" x2="9942.75" y2="3771.03" gradientUnits="userSpaceOnUse">
<stop stop-color="#808080" stop-opacity="0.25"/>
<stop offset="0.54" stop-color="#808080" stop-opacity="0.12"/>
<stop offset="1" stop-color="#808080" stop-opacity="0.1"/>
</linearGradient>
<linearGradient id="paint86_linear" x1="14361.3" y1="2054.92" x2="14361.3" y2="0" gradientUnits="userSpaceOnUse">
<stop stop-color="#808080" stop-opacity="0.25"/>
<stop offset="0.54" stop-color="#808080" stop-opacity="0.12"/>
<stop offset="1" stop-color="#808080" stop-opacity="0.1"/>
</linearGradient>
<linearGradient id="paint87_linear" x1="9035.11" y1="855.034" x2="9035.11" y2="682.492" gradientUnits="userSpaceOnUse">
<stop stop-color="#808080" stop-opacity="0.25"/>
<stop offset="0.54" stop-color="#808080" stop-opacity="0.12"/>
<stop offset="1" stop-color="#808080" stop-opacity="0.1"/>
</linearGradient>
<linearGradient id="paint88_linear" x1="14861.5" y1="6849.97" x2="14861.5" y2="4328.3" gradientUnits="userSpaceOnUse">
<stop stop-color="#808080" stop-opacity="0.25"/>
<stop offset="0.54" stop-color="#808080" stop-opacity="0.12"/>
<stop offset="1" stop-color="#808080" stop-opacity="0.1"/>
</linearGradient>
<linearGradient id="paint89_linear" x1="25812.1" y1="11596.6" x2="25812.1" y2="7722.97" gradientUnits="userSpaceOnUse">
<stop stop-color="#808080" stop-opacity="0.25"/>
<stop offset="0.54" stop-color="#808080" stop-opacity="0.12"/>
<stop offset="1" stop-color="#808080" stop-opacity="0.1"/>
</linearGradient>
<clipPath id="clip0">
<rect width="326" height="339.546" fill="white"/>
</clipPath>
</defs>
</svg>
